<?xml version="1.0" standalone="no"?>
<!DOCTYPE svg PUBLIC "-//W3C//DTD SVG 20010904//EN"
 "http://www.w3.org/TR/2001/REC-SVG-20010904/DTD/svg10.dtd">
<svg version="1.0" xmlns="http://www.w3.org/2000/svg"
 width="500.000000pt" height="500.000000pt" viewBox="0 0 500.000000 500.000000"
 preserveAspectRatio="xMidYMid meet">
<metadata>
Created by potrace 1.16, written by Peter Selinger 2001-2019
</metadata>
<g transform="translate(0.000000,500.000000) scale(0.100000,-0.100000)"
fill="#000000" stroke="none">
<path d="M2190 4529 c-162 -82 -394 -199 -515 -259 -121 -60 -543 -271 -937
-467 -395 -197 -718 -361 -718 -364 0 -9 2462 -1239 2480 -1239 8 0 501 243
1095 540 595 297 1084 540 1088 540 4 0 7 -596 7 -1325 l0 -1325 155 0 155 0
0 1403 -1 1402 -1247 623 c-686 342 -1251 622 -1257 621 -5 0 -143 -67 -305
-150z"/>
<path d="M940 2103 l0 -689 364 -187 c201 -103 370 -187 376 -187 6 0 190 -92
410 -205 219 -113 404 -205 410 -205 6 0 191 92 410 205 219 113 404 205 410
205 6 0 175 84 376 187 l364 187 0 689 0 688 -77 -39 c-43 -22 -161 -80 -263
-130 -192 -95 -469 -234 -942 -472 l-278 -140 -277 140 c-474 238 -751 377
-943 472 -102 50 -220 108 -262 130 l-78 39 0 -688z"/>
</g>
</svg>
