<svg version="1.1" id="Layer_1" xmlns="http://www.w3.org/2000/svg" xmlns:xlink="http://www.w3.org/1999/xlink" x="0px" y="0px"
	 width="100%" viewBox="0 0 695 695" enable-background="new 0 0 695 695" xml:space="preserve">
<path fill="#726AFE" opacity="1.000000" stroke="none" 
	d="
M328.000000,696.000000 
	C220.019318,696.000000 112.538620,695.981689 5.058040,696.086609 
	C1.761868,696.089844 0.897069,695.601929 0.898805,692.059326 
	C1.010973,463.100555 1.012741,234.141693 0.890010,5.182912 
	C0.887979,1.394546 1.890429,0.916983 5.315652,0.918333 
	C234.107834,1.008566 462.900055,1.008807 691.692200,0.916541 
	C695.138733,0.915151 696.110474,1.424174 696.108459,5.190780 
	C695.987549,233.982941 695.987610,462.775177 696.103699,691.567322 
	C696.105713,695.468628 695.061279,696.090088 691.434204,696.086914 
	C570.456177,695.981995 449.478088,696.000000 328.000000,696.000000 
z"/>
<path fill="#010103" opacity="1.000000" stroke="none" 
	d="
M259.394562,251.438538 
	C287.436462,239.000443 315.155762,226.767334 342.811707,214.392593 
	C345.977814,212.975922 348.579559,213.016998 351.766235,214.429184 
	C394.830231,233.513092 437.956268,252.457016 481.062225,271.446259 
	C498.273804,279.028381 515.443359,286.707031 532.706299,294.170013 
	C535.937500,295.566956 536.998657,297.449768 536.993042,300.923889 
	C536.896423,360.256378 536.875977,419.589172 537.025757,478.921448 
	C537.036682,483.256134 536.027161,484.925201 531.551025,484.540466 
	C527.415955,484.185028 523.203857,484.222076 519.064270,484.559540 
	C514.608337,484.922852 513.163208,483.564148 513.184937,478.835846 
	C513.361877,440.337189 513.261597,401.837128 513.206909,363.337555 
	C513.182251,346.004822 512.956299,328.671448 513.075745,311.340088 
	C513.105469,307.027954 512.181213,306.760895 508.395386,308.432678 
	C456.321777,331.428772 404.169647,354.247101 352.077637,377.201752 
	C349.132599,378.499542 346.750854,378.685974 343.677368,377.347382 
	C283.854919,351.294067 224.215668,324.829712 164.781326,297.903595 
	C163.638718,297.386017 162.147064,297.273163 161.177444,295.132141 
	C193.829346,280.610077 226.441269,266.105774 259.394562,251.438538 
z"/>
<path fill="#010103" opacity="1.000000" stroke="none" 
	d="
M229.786606,377.999878 
	C229.784592,366.335480 229.846741,355.170441 229.740814,344.007019 
	C229.709732,340.731964 230.196075,339.441895 233.858047,341.080353 
	C270.011719,357.256378 306.249878,373.243774 342.373718,389.485687 
	C346.072815,391.148895 349.070526,391.286316 352.726501,389.648834 
	C388.727814,373.524506 424.804626,357.568756 460.803253,341.438507 
	C464.646179,339.716583 465.909515,339.984833 465.884003,344.603149 
	C465.731293,372.264252 465.775543,399.926758 465.871552,427.588409 
	C465.882080,430.620209 465.105591,432.204102 462.082977,433.541809 
	C425.555206,449.708191 389.107605,466.056030 352.670868,482.427124 
	C349.445984,483.876068 346.676697,484.145844 343.235565,482.595062 
	C306.677490,466.119507 270.054169,449.787842 233.379303,433.573822 
	C230.336334,432.228546 229.740250,430.462067 229.759872,427.491608 
	C229.867676,411.161682 229.796417,394.830597 229.786606,377.999878 
z"/>
</svg>